<?xml version="1.0"?>
<svg width="192" height="192" xmlns="http://www.w3.org/2000/svg" xmlns:svg="http://www.w3.org/2000/svg">
 <!-- Created with SVG-edit - https://github.com/SVG-Edit/svgedit-->
 <g class="layer">
  <title>Layer 1</title>
  <g stroke="null" id="svg_11">
   <path stroke="#000000" stroke-width="0" id="svg_3" d="m13.995417,74.977784c5.676687,-21.011887 24.839297,-46.779563 61.512659,-57.184584l37.125595,-2.078789c33.249232,-0.389046 44.315498,5.825782 52.965753,17.816082c8.650204,11.990347 25.605222,50.007702 10.106961,68.87233c-15.498312,18.864674 -30.140566,29.831677 -61.73794,24.124768c-31.597272,-5.706909 -63.25465,-8.805383 -72.415521,5.836575c-9.160821,14.642005 -9.491223,16.227377 -13.499139,30.001233c-4.007916,13.773809 -6.369291,18.680664 -6.727948,18.446626c-0.358556,-0.234084 -5.648483,-41.357375 -10.213854,-61.562262c-4.565422,-20.204887 -2.793302,-23.260092 2.883385,-44.271979l0.000051,0z" fill="#293ce5"/>
   <ellipse stroke="#000000" id="svg_5" ry="11.990347" rx="11.533639" cy="49.397498" cx="130.292737" stroke-linecap="null" stroke-linejoin="null" stroke-dasharray="null" stroke-width="0" fill="#28e2d6"/>
   <ellipse stroke="#000000" id="svg_6" ry="11.990347" rx="11.533639" cy="48.475193" cx="85.965845" stroke-linecap="null" stroke-linejoin="null" stroke-dasharray="null" stroke-width="0" fill="#28e2d6"/>
   <rect stroke="#000000" id="svg_9" height="11.067995" width="51.901276" y="70.457441" x="80.679615" stroke-linecap="null" stroke-linejoin="null" stroke-dasharray="null" stroke-width="0" fill="#28e2d6"/>
   <path stroke="#000000" id="svg_10" d="m38.860185,91.850442c11.140955,-5.954556 12.724505,-4.898455 42.273233,2.165421c29.548729,7.063829 49.312797,3.124472 55.446781,-0.34817c6.133933,-3.472689 14.936755,-10.656141 21.380177,-12.230016c6.443422,-1.573781 14.041758,4.513351 10.891672,9.924323c-3.150137,5.411019 -7.350977,10.053144 -22.364092,16.594366c-15.013064,6.541316 -35.2719,3.888719 -42.98675,1.365508c-7.71485,-2.523165 -8.026213,-1.10289 -32.093154,-8.588193c-24.066992,-7.48535 -30.72577,6.532915 -41.197515,27.091792c-10.471745,20.558876 -2.491307,-30.020568 8.649647,-35.97503z" stroke-linecap="null" stroke-linejoin="null" stroke-dasharray="null" stroke-width="0" fill="#28e2d6"/>
  </g>
 </g>
</svg>