<?xml version="1.0"?>
<svg width="1242" height="2436" xmlns="http://www.w3.org/2000/svg" xmlns:svg="http://www.w3.org/2000/svg">
 <!-- Created with SVG-edit - https://github.com/SVG-Edit/svgedit-->
 <g class="layer">
  <title>Layer 1</title>
  <rect stroke="#000000" id="svg_1" height="2449.733796" width="1236.104252" y="-14.359396" x="-2.670782" stroke-width="5" fill="#1021ba"/>
  <g stroke="null" id="svg_11">
   <path stroke="#000000" stroke-width="0" id="svg_3" d="m193.074707,1006.632722c27.739587,-105.200132 121.379335,-234.211006 300.586924,-286.305822l181.417401,-10.407818c162.475233,-1.947855 216.551517,29.167906 258.82171,89.199685c42.269998,60.03198 125.122167,250.37332 49.388582,344.822775c-75.733879,94.449656 -147.284498,149.358134 -301.687774,120.785374c-154.402837,-28.57276 -309.099309,-44.085905 -353.86474,29.221928c-44.765138,73.308084 -46.379666,81.245548 -65.964664,150.207019c-19.585047,68.961271 -31.124134,93.528424 -32.876709,92.356657c-1.752134,-1.171967 -27.601834,-207.063753 -49.910909,-308.223482c-22.309319,-101.159729 -13.649702,-116.456185 14.089934,-221.656317l0.000244,0z" fill="#f8f2f9"/>
   <ellipse stroke="#000000" id="svg_5" ry="60.03203" rx="56.360128" cy="884.896626" cx="761.371603" stroke-linecap="null" stroke-linejoin="null" stroke-dasharray="null" stroke-width="0" fill="#0d1f7a"/>
   <ellipse stroke="#000000" id="svg_6" ry="60.03203" rx="56.360128" cy="880.278901" cx="544.764427" stroke-linecap="null" stroke-linejoin="null" stroke-dasharray="null" stroke-width="0" fill="#051e6b"/>
   <rect stroke="#000000" id="svg_9" height="55.414054" width="253.620086" y="988.225155" x="518.932759" stroke-linecap="null" stroke-linejoin="null" stroke-dasharray="null" stroke-width="0" fill="#082670"/>
   <path stroke="#000000" id="svg_10" d="m314.578553,1095.333389c54.441214,-29.812668 62.179368,-24.525097 206.571788,10.841598c144.39242,35.366445 240.971206,15.643269 270.945478,-1.743181c29.973979,-17.386701 72.989718,-53.352047 104.476095,-61.231984c31.486328,-7.879437 68.616224,22.596969 53.223086,49.688047c-15.393431,27.091329 -35.921198,50.333059 -109.284057,83.082955c-73.362663,32.750397 -172.359185,19.469636 -210.058465,6.836693c-37.699281,-12.632744 -39.220817,-5.521834 -156.825997,-42.998451c-117.605425,-37.476867 -150.144128,32.70829 -201.31519,135.640339c-51.17111,102.931999 -12.174001,-150.303849 42.267213,-180.116016l0.000049,0z" stroke-linecap="null" stroke-linejoin="null" stroke-dasharray="null" stroke-width="0" fill="#073460"/>
  </g>
 </g>
</svg>